<svg width="59" height="46" viewBox="0 0 59 46" fill="none" xmlns="http://www.w3.org/2000/svg">
<g clip-path="url(#clip0_151117_67)">
<path d="M25.7112 45.9551L20.0878 44.3649C19.4978 44.2031 19.1659 43.6012 19.3318 43.0262L31.9154 0.781658C32.0814 0.206658 32.699 -0.11678 33.289 0.0449389L38.9125 1.63517C39.5025 1.79689 39.8343 2.39885 39.6684 2.97385L27.0848 45.2184C26.9096 45.7934 26.3012 46.1258 25.7112 45.9551ZM15.2018 35.8746L19.212 31.7059C19.636 31.2656 19.6084 30.5649 19.1382 30.1606L10.786 23L19.1382 15.8395C19.6084 15.4352 19.6453 14.7344 19.212 14.2942L15.2018 10.1254C14.787 9.69416 14.0864 9.6672 13.6346 10.0805L0.35042 22.2094C-0.119736 22.6317 -0.119736 23.3594 0.35042 23.7817L13.6346 35.9195C14.0864 36.3328 14.787 36.3149 15.2018 35.8746ZM45.3656 35.9285L58.6498 23.7906C59.12 23.3684 59.12 22.6406 58.6498 22.2184L45.3656 10.0715C44.9231 9.6672 44.2225 9.68517 43.7984 10.1164L39.7882 14.2852C39.3642 14.7254 39.3918 15.4262 39.862 15.8305L48.2142 23L39.862 30.1606C39.3918 30.5649 39.355 31.2656 39.7882 31.7059L43.7984 35.8746C44.2132 36.3149 44.9139 36.3328 45.3656 35.9285Z" fill="#0A3871"/>
</g>
<defs>
<clipPath id="clip0_151117_67">
<rect width="59" height="46" fill="white"/>
</clipPath>
</defs>
</svg>
